<svg width="203" height="56" viewBox="0 0 203 56" fill="none" xmlns="http://www.w3.org/2000/svg">
<g clip-path="url(#clip0_911_2635)">
<path d="M60.8394 7.95937C60.9335 7.9151 61.0494 7.78322 61.1417 7.92075C61.25 8.08276 61.0758 8.0903 60.9816 8.13174L60.8394 7.95937Z" fill="#58595B"/>
<path d="M61.3623 7.77098L61.4329 7.70033C61.4585 7.74207 61.479 7.78664 61.4942 7.83315C61.4942 7.84916 61.4546 7.87553 61.4329 7.89814C61.4094 7.85104 61.3849 7.80866 61.3623 7.77098Z" fill="#58595B"/>
<path d="M66.9331 35.9716V16.3972H70.3476V35.9716H66.9331Z" fill="#58595B"/>
<path d="M73.522 20.6039H84.4164C87.1417 20.6039 88.5044 21.7744 88.5044 24.1154V35.9716H85.0419V24.6684C85.0419 23.8671 84.5687 23.4661 83.6224 23.4655H76.961V35.9716H73.522V20.6039Z" fill="#58595B"/>
<path d="M108.44 35.9716V20.6039H111.879V35.9716H108.44Z" fill="#58595B"/>
<path d="M114.862 30.0317C114.862 27.8515 116.217 26.761 118.926 26.7604H128.157L127.969 25.3418C127.873 24.7321 127.596 24.2671 127.139 23.9468C126.682 23.6266 126.085 23.4661 125.349 23.4655H115.848V20.6039H126.693C128.008 20.6039 129.103 20.8887 129.976 21.4582C130.85 22.0278 131.399 22.9135 131.624 24.1154L133.644 35.9716H118.926C116.216 35.9716 114.861 34.7691 114.862 32.364V30.0317ZM128.738 29.5984H120.128C118.893 29.5984 118.276 30.1033 118.277 31.1131V31.7385C118.277 32.1718 118.425 32.5125 118.722 32.7605C119.018 33.0086 119.487 33.1342 120.128 33.1373H129.315L128.738 29.5984Z" fill="#58595B"/>
<path d="M154.807 35.9716V23.4655H147.977V35.9716H144.538V20.6039H164.451C167.192 20.6039 168.562 21.7744 168.563 24.1154V35.9716H165.1V24.6684C165.1 23.8671 164.627 23.4661 163.681 23.4655H158.246V35.9716H154.807Z" fill="#58595B"/>
<path d="M174.936 29.5984V31.5464C174.936 32.6039 175.609 33.1329 176.956 33.1335H185.541V35.9716H175.561C172.867 35.9716 171.52 34.8011 171.521 32.46V24.2596C171.521 21.8224 172.868 20.6039 175.561 20.6039H185.541V23.4655H176.961C176.27 23.4655 175.761 23.6259 175.434 23.9468C175.107 24.2677 174.942 24.7246 174.94 25.3173V26.7604H184.512V29.5984H174.936Z" fill="#58595B"/>
<path d="M188.5 20.5747L198.479 20.6039C201.173 20.6039 202.52 21.8225 202.52 24.2596V32.4601C202.52 34.8017 201.173 35.9722 198.479 35.9716H188.5V20.5747ZM197.084 23.4655H191.987V33.1336H197.084C198.431 33.1336 199.105 32.6045 199.105 31.5464V25.3174C199.105 24.7252 198.941 24.2684 198.612 23.9469C198.284 23.6253 197.774 23.4649 197.084 23.4655Z" fill="#58595B"/>
<path d="M91.4678 20.5747L101.452 20.6039C104.146 20.6039 105.493 21.8225 105.493 24.2596V32.4601C105.493 34.8017 104.146 35.9722 101.452 35.9716H91.4678V20.5747ZM100.054 23.4655H94.9548V33.1336H100.054C101.399 33.1336 102.072 32.6045 102.073 31.5464V25.3174C102.073 24.7252 101.909 24.2684 101.58 23.9469C101.252 23.6253 100.743 23.4649 100.054 23.4655Z" fill="#58595B"/>
<path d="M102.811 49.3867C102.171 49.3892 101.535 49.2871 100.928 49.0843C100.328 48.8834 99.8569 48.6224 99.5146 48.3016L99.9705 47.3398C100.343 47.6529 100.769 47.8955 101.228 48.0557C101.737 48.2439 102.275 48.3396 102.818 48.3383C103.233 48.3521 103.648 48.2935 104.043 48.165C104.314 48.0792 104.554 47.9154 104.733 47.694C104.88 47.4963 104.958 47.2562 104.955 47.0102C104.96 46.8772 104.937 46.7447 104.887 46.6214C104.837 46.4982 104.762 46.387 104.665 46.2952C104.447 46.0993 104.19 45.9502 103.912 45.8572C103.579 45.7393 103.239 45.6427 102.894 45.5681C102.524 45.4858 102.152 45.3891 101.778 45.2779C101.422 45.1746 101.079 45.0321 100.755 44.8531C100.453 44.6857 100.197 44.4463 100.009 44.1561C99.8208 43.8641 99.7266 43.4873 99.7266 43.0258C99.7239 42.5924 99.8458 42.1673 100.078 41.8013C100.312 41.4245 100.674 41.1246 101.163 40.9017C101.652 40.6788 102.275 40.5658 103.031 40.5626C103.534 40.563 104.036 40.6292 104.522 40.7595C104.978 40.8745 105.412 41.0656 105.805 41.3246L105.398 42.3108C105.039 42.0698 104.643 41.8887 104.226 41.7749C103.837 41.6668 103.435 41.6107 103.031 41.6082C102.624 41.5966 102.218 41.6604 101.835 41.7965C101.563 41.8898 101.325 42.0612 101.151 42.2892C101.008 42.4908 100.932 42.7325 100.935 42.9796C100.928 43.1145 100.951 43.2492 101.001 43.3747C101.05 43.5001 101.127 43.6134 101.224 43.7068C101.442 43.9019 101.699 44.0489 101.978 44.1382C102.312 44.2523 102.651 44.3492 102.995 44.4283C103.364 44.515 103.736 44.6117 104.11 44.7184C104.467 44.8172 104.81 44.9579 105.133 45.1376C105.435 45.3034 105.691 45.5404 105.879 45.828C106.068 46.1156 106.162 46.4852 106.162 46.9367C106.164 47.3678 106.04 47.7901 105.805 48.1518C105.566 48.5286 105.198 48.8284 104.701 49.0513C104.204 49.2743 103.574 49.386 102.811 49.3867Z" fill="#58595B"/>
<path d="M110.788 49.2878V40.6587H116.878V41.7306H112.021V48.2158H117.053V49.2878H110.788ZM111.909 45.4258V44.3812H116.348V45.4296L111.909 45.4258Z" fill="#58595B"/>
<path d="M121.884 49.2878V40.6587H125.248C126.366 40.6587 127.245 40.9237 127.886 41.4537C128.527 41.9837 128.848 42.7212 128.848 43.6663C128.863 44.233 128.713 44.792 128.416 45.2751C128.116 45.7331 127.687 46.0915 127.183 46.3046C126.649 46.5426 126.004 46.662 125.247 46.6626H122.56L123.115 46.0974V49.2896L121.884 49.2878ZM123.117 46.218L122.562 45.6142H125.213C126.001 45.6142 126.598 45.4437 127.002 45.1027C127.407 44.7618 127.61 44.2829 127.613 43.6663C127.613 43.0503 127.409 42.5736 127.002 42.2364C126.595 41.8992 125.999 41.7306 125.213 41.7306H122.562L123.117 41.1146V46.218ZM127.653 49.2878L125.458 46.1568H126.777L128.996 49.2878H127.653Z" fill="#58595B"/>
<path d="M136.175 49.2878L132.378 40.6587H133.71L137.195 48.6227H136.43L139.944 40.6587H141.177L137.392 49.2878H136.175Z" fill="#58595B"/>
<path d="M145.11 49.2878V40.6587H146.348V49.2878H145.11Z" fill="#58595B"/>
<path d="M155.627 49.3867C155.005 49.3936 154.388 49.2827 153.808 49.0598C153.27 48.8526 152.779 48.5382 152.366 48.1358C151.959 47.7362 151.634 47.2606 151.41 46.7361C150.95 45.6058 150.95 44.3407 151.41 43.2104C151.635 42.6812 151.965 42.2028 152.379 41.8036C152.793 41.4044 153.283 41.0925 153.82 40.8866C155.002 40.4469 156.303 40.4513 157.481 40.8989C158.032 41.1164 158.524 41.4604 158.918 41.903L158.116 42.6801C157.806 42.3475 157.428 42.0849 157.008 41.9096C156.589 41.7401 156.141 41.6543 155.689 41.6571C155.227 41.6526 154.769 41.7361 154.339 41.903C153.937 42.0591 153.571 42.2938 153.261 42.5934C152.954 42.8924 152.713 43.2512 152.551 43.6475C152.215 44.4993 152.215 45.4471 152.551 46.299C152.713 46.6952 152.955 47.0539 153.261 47.353C153.571 47.6526 153.937 47.8873 154.339 48.0435C154.769 48.2104 155.227 48.2938 155.689 48.2893C156.141 48.2922 156.589 48.2064 157.008 48.0369C157.43 47.86 157.808 47.5928 158.116 47.2541L158.918 48.0303C158.524 48.4743 158.032 48.8206 157.481 49.0419C156.892 49.2768 156.262 49.3939 155.627 49.3867Z" fill="#58595B"/>
<path d="M163.396 49.2878V40.6587H169.487V41.7306H164.629V48.2158H169.659V49.2878H163.396ZM164.518 45.4258V44.3812H168.954V45.4296L164.518 45.4258Z" fill="#58595B"/>
<path d="M0.0649641 27.0806C1.82073 30.1532 4.15768 32.0484 7.31787 32.8538C9.71039 33.4632 12.1217 33.4444 14.5538 33.0676C18.8867 32.396 22.9503 30.9106 26.8612 29.0173C35.4224 24.8812 43.3451 19.7128 50.873 13.9199C51.2065 13.6628 51.554 13.4245 51.8922 13.1796C52.154 13.48 51.9223 13.5365 51.7839 13.6712C50.5361 14.887 49.2946 16.1077 48.0595 17.3335C47.9521 17.4399 47.7637 17.5379 47.839 17.7197C47.9031 17.8723 48.0491 17.9241 48.246 17.8958C49.8736 17.6603 51.3308 18.2556 52.7183 18.9612C56.0395 20.65 58.0873 24.707 57.5485 28.3683C56.9579 32.3951 53.9437 35.5637 50.0733 36.2928C48.3722 36.613 46.6654 36.4463 44.9614 36.468C43.0549 36.4934 41.1456 36.5254 39.242 36.4463C38.3189 36.4077 38.1559 36.7449 38.1701 37.571C38.2197 40.496 38.2291 43.4214 38.1983 46.347C38.1625 49.9386 36.6648 52.7851 33.5546 54.6163C30.3331 56.5133 26.9855 56.4446 23.8347 54.5014C20.6623 52.545 19.3351 49.4987 19.3878 45.8111C19.4284 43.0182 19.4133 40.2235 19.4867 37.4278C19.5075 36.6215 19.2334 36.4369 18.4779 36.4473C15.4534 36.4906 12.4288 36.4925 9.40426 36.4746C4.52409 36.4473 0.348487 32.5495 0.000912392 27.7249C-0.00756504 27.611 0.0235189 27.4894 0.0649641 27.0806Z" fill="#EF4E31"/>
<path d="M60.2417 8.04131C58.3964 9.11229 56.5107 10.1192 54.7568 11.3381C54.0362 11.8401 53.7922 11.7412 53.7084 10.8473C53.6726 10.4593 53.3542 10.5073 53.1291 10.4178C52.6911 10.2436 51.9046 10.3434 51.8547 9.96003C51.7831 9.43443 52.5696 9.30067 52.9417 8.9418C53.0934 8.7874 53.2875 8.68146 53.4994 8.63736C53.7113 8.59327 53.9316 8.613 54.1323 8.69407C55.3568 9.18388 56.343 8.80616 57.2576 7.98385C57.6862 7.59954 58.2372 7.36029 58.7346 6.77158L52.0346 6.34017C52.2399 5.90876 52.6629 5.82776 52.936 5.58003C54.3489 4.29428 56.0604 4.00323 57.9 4.00323C59.2592 4.00323 60.6175 3.86382 61.9767 3.80636C62.6466 3.78107 63.2926 3.55093 63.8276 3.14701C64.8185 2.42454 65.8462 1.752 66.8173 1.00504C67.2734 0.634363 67.8543 0.452658 68.4403 0.497338C69.078 0.533132 69.7213 0.487919 70.3609 0.512409C70.6708 0.523713 71.1248 0.3325 71.1889 0.869403C71.2416 1.31871 71.4017 1.76142 70.8281 2.11747C68.6616 3.46444 66.4707 4.76933 64.2553 6.03216C63.9444 6.2083 63.7353 6.48711 63.513 6.75085C61.9362 8.61495 60.3707 10.4903 58.7751 12.3384C58.5867 12.556 58.4982 13.1485 57.9537 12.7632C57.3886 12.3676 57.8953 12.0474 58.0649 11.7761C58.8184 10.5695 59.4627 9.29031 60.3613 8.17506C60.4376 8.14115 60.5798 8.1355 60.4913 8.00363C60.4131 7.89719 60.3217 8.00551 60.2417 8.04131ZM60.6674 7.88306C60.6853 7.91697 60.7051 7.95182 60.7239 7.98667C60.7418 7.96878 60.7767 7.94711 60.7739 7.93392C60.7615 7.896 60.7447 7.85965 60.7239 7.8256L60.6674 7.88306Z" fill="#58595B"/>
<path d="M41.8654 17.8243C37.3112 20.7282 32.625 23.2319 27.6187 25.0611C23.9272 26.4091 20.1877 27.6486 16.1666 27.416C13.5235 27.2615 11.2252 26.3968 9.72281 24.042C8.92405 22.7901 8.59814 21.381 8.49358 19.9351C8.39939 18.6371 9.29517 17.8403 10.7844 17.8271C13.2165 17.8045 15.6485 17.8205 18.0806 17.8195C19.4596 17.8195 19.4511 17.8195 19.4643 16.4368C19.4832 14.47 19.3918 12.4976 19.3795 10.5308C19.9639 12.5575 21.1818 14.3437 22.8548 15.628C24.5279 16.9123 26.5683 17.6272 28.6771 17.6678C30.7859 17.7085 32.8523 17.0728 34.5736 15.8539C36.295 14.6351 37.5808 12.897 38.2428 10.8944C38.2286 12.54 38.1655 14.1912 38.1787 15.8302C38.1966 17.845 38.1787 17.845 40.2246 17.8252C40.7709 17.8195 41.3219 17.8243 41.8654 17.8243Z" fill="#58595B"/>
<path d="M28.8677 15.5909C33.173 15.5909 36.6632 12.1008 36.6632 7.79545C36.6632 3.49013 33.173 -1.52588e-05 28.8677 -1.52588e-05C24.5624 -1.52588e-05 21.0723 3.49013 21.0723 7.79545C21.0723 12.1008 24.5624 15.5909 28.8677 15.5909Z" fill="#EF4E31"/>
</g>
<defs>
<clipPath id="clip0_911_2635">
<rect width="202.52" height="56" fill="white"/>
</clipPath>
</defs>
</svg>
